<?xml version="1.0" standalone="no"?>
<!DOCTYPE svg PUBLIC "-//W3C//DTD SVG 20010904//EN"
 "http://www.w3.org/TR/2001/REC-SVG-20010904/DTD/svg10.dtd">
<svg version="1.0" xmlns="http://www.w3.org/2000/svg"
 width="16.000000pt" height="16.000000pt" viewBox="0 0 16.000000 16.000000"
 preserveAspectRatio="xMidYMid meet">
<metadata>
Created by potrace 1.11, written by Peter Selinger 2001-2013
</metadata>
<g transform="translate(0.000000,16.000000) scale(0.002286,-0.002286)"
fill="#000000" stroke="none">
<path d="M2390 6352 c-30 -1 -102 -9 -160 -18 -377 -55 -725 -227 -1001 -495
-351 -340 -550 -793 -559 -1273 -5 -278 -2 -2049 4 -2119 38 -437 222 -829
537 -1146 82 -83 269 -234 309 -249 8 -3 34 -19 57 -35 129 -87 398 -185 609
-222 148 -26 221 -28 1274 -28 904 0 1186 4 1208 17 4 2 32 7 62 10 183 22
460 126 655 246 240 147 470 381 612 620 123 209 194 406 239 665 16 90 18
207 19 1180 1 968 -2 1202 -19 1285 -2 14 -7 43 -11 64 -27 187 -130 452 -245
635 -186 298 -462 545 -770 688 -154 72 -338 131 -460 148 -25 3 -52 8 -60 10
-59 15 -245 18 -1185 19 -583 1 -1085 0 -1115 -2z m2124 -276 c506 -25 974
-307 1245 -749 115 -188 182 -389 217 -652 9 -66 9 -2142 0 -2220 -57 -509
-319 -926 -742 -1185 -188 -116 -391 -186 -634 -219 -36 -5 -546 -9 -1135 -9
-1117 0 -1164 1 -1333 44 -396 98 -748 353 -955 692 -127 208 -201 429 -226
672 -9 87 -7 2233 2 2270 3 14 11 54 17 90 51 293 203 583 420 800 122 123
139 137 242 206 179 120 423 218 598 240 25 3 52 7 61 10 9 3 54 7 100 10 46
2 84 6 85 7 5 5 1936 -1 2038 -7z"/>
<path d="M1990 3591 l0 -249 -217 0 c-120 0 -233 -1 -250 -1 l-33 -1 0 -135 0
-135 250 0 250 0 0 -250 0 -250 138 0 137 0 -1 250 -2 250 249 0 249 0 1 28
c1 53 1 157 0 202 l-1 45 -247 0 -248 0 -2 215 c0 118 -2 230 -2 248 l-1 32
-135 0 -135 0 0 -249z"/>
<path d="M4173 3340 c-16 -4 -18 -18 -18 -135 l0 -130 635 -3 636 -2 -1 135 0
135 -25 1 c-129 3 -1213 3 -1227 -1z"/>
<path d="M2560 2150 c0 -108 64 -247 156 -337 195 -191 494 -201 696 -23 l46
40 42 -39 c49 -45 146 -95 222 -115 73 -19 208 -13 280 12 133 48 243 144 301
266 38 78 46 104 53 177 l5 50 -138 -3 -137 -3 -8 -42 c-9 -53 -22 -79 -62
-121 -91 -98 -247 -100 -348 -5 -34 33 -68 104 -68 143 l0 30 -139 0 -139 0
-6 -45 c-16 -105 -123 -196 -233 -198 -133 -2 -245 101 -252 231 -1 9 -35 12
-136 12 l-135 0 0 -30z"/>
</g>
</svg>
