<?xml version="1.0" encoding="UTF-8" standalone="no"?>
<!-- Created with Inkscape (http://www.inkscape.org/) -->

<svg
   xmlns:dc="http://purl.org/dc/elements/1.1/"
   xmlns:cc="http://creativecommons.org/ns#"
   xmlns:rdf="http://www.w3.org/1999/02/22-rdf-syntax-ns#"
   xmlns:svg="http://www.w3.org/2000/svg"
   xmlns="http://www.w3.org/2000/svg"
   xmlns:sodipodi="http://sodipodi.sourceforge.net/DTD/sodipodi-0.dtd"
   xmlns:inkscape="http://www.inkscape.org/namespaces/inkscape"
   id="svg3753"
   version="1.1"
   inkscape:version="0.91 r13725"
   xml:space="preserve"
   width="50"
   height="50"
   viewBox="0 0 50 50"
   sodipodi:docname="chibitronics_logo_white_small.svg"><metadata
     id="metadata3759"><rdf:RDF><cc:Work
         rdf:about=""><dc:format>image/svg+xml</dc:format><dc:type
           rdf:resource="http://purl.org/dc/dcmitype/StillImage" /><dc:title></dc:title></cc:Work></rdf:RDF></metadata><defs
     id="defs3757"><clipPath
       clipPathUnits="userSpaceOnUse"
       id="clipPath3767"><path
         d="m 0,56.693 141.732,0 L 141.732,0 0,0 0,56.693 Z"
         id="path3769"
         inkscape:connector-curvature="0" /></clipPath></defs><sodipodi:namedview
     pagecolor="#ffff7e"
     bordercolor="#666666"
     borderopacity="1"
     objecttolerance="10"
     gridtolerance="10"
     guidetolerance="10"
     inkscape:pageopacity="0"
     inkscape:pageshadow="2"
     inkscape:window-width="1469"
     inkscape:window-height="999"
     id="namedview3755"
     showgrid="false"
     inkscape:zoom="5.6568543"
     inkscape:cx="46.679082"
     inkscape:cy="44.733707"
     inkscape:window-x="0"
     inkscape:window-y="0"
     inkscape:window-maximized="0"
     inkscape:current-layer="g3765" /><g
     id="g3761"
     inkscape:groupmode="layer"
     inkscape:label="chibitronics_logo_red_R-mark"
     transform="matrix(1.25,0,0,-1.25,0,49.999968)"><g
       id="g3763"><g
         id="g3765"
         clip-path="url(#clipPath3767)"><g
           id="g3771"
           transform="translate(2.3589383,26.229604)" /><g
           id="g3775"
           transform="translate(13.305037,36.894704)"
           style="fill:#ffffff"><path
             id="path3777"
             style="fill:#ffffff;fill-opacity:1;fill-rule:nonzero;stroke:none"
             d="m 0,0 c -5.881,0 -10.665,-4.784 -10.665,-10.665 l 0,-13.237 c 0,-5.881 4.784,-10.664 10.665,-10.664 l 13.237,0 c 5.881,0 10.666,4.783 10.666,10.664 l 0,13.237 C 23.903,-4.784 19.118,0 13.237,0 L 0,0 Z m -12.5461,-10.6651 c 0,6.917 5.6290003,12.546 12.5460003,12.546 l 13.2369997,0 c 6.918,0 12.546,-5.629 12.546,-12.546 l 0,-13.237 c 0,-6.917 -5.628,-12.545 -12.546,-12.545 l -13.2369997,0 c -6.917,0 -12.5460003,5.628 -12.5460003,12.545 l 0,13.237 z"
             inkscape:connector-curvature="0" /></g><g
           id="g3779"
           transform="translate(17.275037,6.5827033)"><path
             d="m 0,0 c -1.962,0 -3.557,1.595 -3.557,3.557 l 1.874,0 c 0,-0.927 0.756,-1.685 1.683,-1.685 0.928,0 1.684,0.758 1.684,1.685 l 1.874,0 C 3.558,1.595 1.963,0 0,0"
             style="fill:#ffffff;fill-opacity:1;fill-rule:nonzero;stroke:none"
             id="path3781"
             inkscape:connector-curvature="0" /></g><g
           id="g3783"
           transform="translate(22.517237,6.5827033)"><path
             d="m 0,0 c -1.962,0 -3.558,1.595 -3.558,3.557 l 1.874,0 c 0,-0.927 0.756,-1.685 1.684,-1.685 0.929,0 1.683,0.758 1.683,1.685 l 1.876,0 C 3.559,1.595 1.963,0 0,0"
             style="fill:#ffffff;fill-opacity:1;fill-rule:nonzero;stroke:none"
             id="path3785"
             inkscape:connector-curvature="0" /></g><path
           d="m 15.115537,16.237304 -8.710999,0 0,1.872 8.710999,0 0,-1.872 z"
           style="fill:#ffffff;fill-opacity:1;fill-rule:nonzero;stroke:none"
           id="path3787"
           inkscape:connector-curvature="0" /><path
           d="m 33.387537,16.237304 -8.713,0 0,1.872 8.713,0 0,-1.872 z"
           style="fill:#ffffff;fill-opacity:1;fill-rule:nonzero;stroke:none"
           id="path3789"
           inkscape:connector-curvature="0" /><path
           d="m 11.698537,12.818304 -1.874,0 0,8.712 1.874,0 0,-8.712 z"
           style="fill:#ffffff;fill-opacity:1;fill-rule:nonzero;stroke:none"
           id="path3791"
           inkscape:connector-curvature="0" /></g></g></g></svg>