<?xml version="1.0" encoding="UTF-8" standalone="no"?>
<!-- Generator: Adobe Illustrator 21.0.0, SVG Export Plug-In . SVG Version: 6.00 Build 0)  -->

<svg
   xmlns:dc="http://purl.org/dc/elements/1.1/"
   xmlns:cc="http://creativecommons.org/ns#"
   xmlns:rdf="http://www.w3.org/1999/02/22-rdf-syntax-ns#"
   xmlns:svg="http://www.w3.org/2000/svg"
   xmlns="http://www.w3.org/2000/svg"
   xmlns:sodipodi="http://sodipodi.sourceforge.net/DTD/sodipodi-0.dtd"
   xmlns:inkscape="http://www.inkscape.org/namespaces/inkscape"
   version="1.1"
   id="Layer_1"
   x="0px"
   y="0px"
   viewBox="0 0 225 119.99999"
   xml:space="preserve"
   inkscape:version="0.91 r13725"
   sodipodi:docname="boardpins.svg"
   width="225"
   height="120"><metadata
     id="metadata2255"><rdf:RDF><cc:Work
         rdf:about=""><dc:format>image/svg+xml</dc:format><dc:type
           rdf:resource="http://purl.org/dc/dcmitype/StillImage" /><dc:title></dc:title></cc:Work></rdf:RDF></metadata><defs
     id="defs2253" /><sodipodi:namedview
     pagecolor="#ff0000"
     bordercolor="#666666"
     borderopacity="1"
     objecttolerance="10"
     gridtolerance="10"
     guidetolerance="10"
     inkscape:pageopacity="0"
     inkscape:pageshadow="2"
     inkscape:window-width="1536"
     inkscape:window-height="801"
     id="namedview2251"
     showgrid="false"
     inkscape:zoom="4.012498"
     inkscape:cx="121.57219"
     inkscape:cy="76.305947"
     inkscape:window-x="-8"
     inkscape:window-y="-8"
     inkscape:window-maximized="1"
     inkscape:current-layer="Layer_1" /><style
     type="text/css"
     id="style3">
	.st0{fill:none;stroke:#58595B;stroke-width:0.2835;stroke-miterlimit:10;}
	.st1{fill:none;stroke:#000000;stroke-width:0.2835;stroke-linecap:round;stroke-linejoin:round;stroke-miterlimit:10;}
	.st2{fill:none;stroke:#808080;stroke-width:0.2835;stroke-linecap:round;stroke-linejoin:round;stroke-miterlimit:10;}
	.st3{fill:none;}
	.st4{fill:#FFFFFF;}
	.st5{fill:none;stroke:#000000;stroke-width:0.2835;stroke-miterlimit:10;}
	.st6{clip-path:url(#SVGID_2_);fill:#543F17;}
</style><path
     style="fill:#5fbcd3;fill-opacity:1"
     d="m 29.979886,44.988623 c -0.833154,0 -1.503897,0.415631 -1.503897,0.931909 l 0,27.491305 c 0,0.516278 0.670743,0.931909 1.503897,0.931909 l 157.157284,0 c 0.83316,0 1.5039,-0.415631 1.5039,-0.931909 l 0,-27.491305 c 0,-0.516278 -0.67074,-0.931909 -1.5039,-0.931909 l -157.157284,0 z"
     id="path5180"
     inkscape:connector-curvature="0" /><g
     id="g13"
     transform="translate(-27.892742,-24.950776)"
     style="fill:#ffd42a" /><g
     id="PIN_0"
     inkscape:label="#g5790"
     transform="translate(0,-4)"><path
       id="path5164"
       d="m 44.296875,67.759762 a 2,2 0 0 1 2,2 2,2 0 0 1 -2,2 2,2 0 0 1 -2,-2 2,2 0 0 1 2,-2 z"
       style="fill:#5fbcd3;fill-opacity:1"
       inkscape:connector-curvature="0" /><g
       inkscape:label="#CIRCLE_15_"
       style="fill:#ffd42a"
       transform="translate(-27.892742,-24.950776)"
       id="pin0_circle"><path
         d="m 70.1,94.7 c 0,-1.2 0.9,-2.1 2.1,-2.1 1.2,0 2.1,0.9 2.1,2.1 0,1.2 -0.9,2.1 -2.1,2.1 -1.2,0 -2.1,-1 -2.1,-2.1 l 0,0 z m 11.2,-7.70003 c -2.6,-2.6 -6.8,-2.6 -9.4,0 l -12.4,12.299996 18.7,0 3,-3 c 2.6,-2.599996 2.6,-6.799996 0.1,-9.299996 z"
         style="fill:#ffd42a;stroke:#000000;stroke-width:0.28349999;stroke-linecap:round;stroke-linejoin:round;stroke-miterlimit:10"
         id="path1840"
         inkscape:connector-curvature="0" /></g><rect
       style="fill:#d4ff2a;stroke:#58595b;stroke-width:0.2835173;stroke-miterlimit:10"
       id="rect25"
       height="4.3002629"
       width="8.5005198"
       class="st0"
       transform="matrix(0.70705678,-0.70715678,0.70715678,0.70705678,0,0)"
       y="79.444572"
       x="-4.5615625" /><g
       style="fill:#2b1100"
       transform="translate(-27.892742,-24.950776)"
       id="g29"><path
         style="fill:#2b1100;stroke:#58595b;stroke-width:0.28349999;stroke-miterlimit:10"
         inkscape:connector-curvature="0"
         id="path31"
         d="m 76.9,88.2 c 0.6,0.2 1.2,0.6 1.8,1.2 0.7,0.7 1.1,1.3 1.2,1.8 0.2,0.6 0,1.1 -0.5,1.6 -0.5,0.5 -1,0.7 -1.6,0.5 -0.6,-0.2 -1.2,-0.6 -1.8,-1.2 -0.7,-0.7 -1.1,-1.3 -1.2,-1.8 -0.2,-0.6 0,-1.1 0.5,-1.6 0.5,-0.5 1.1,-0.6 1.6,-0.5 z m 1.1,4.1 c 0.3,0.2 0.6,0.1 0.8,-0.1 0.2,-0.2 0.3,-0.5 0.1,-0.8 -0.2,-0.3 -0.5,-0.7 -0.9,-1.2 -0.5,-0.5 -0.9,-0.8 -1.2,-1 -0.3,-0.2 -0.6,-0.1 -0.8,0.1 -0.2,0.2 -0.3,0.5 -0.1,0.8 0.2,0.3 0.5,0.7 1,1.2 0.4,0.6 0.8,0.9 1.1,1 z"
         class="st0" /></g></g><g
     id="g65"
     transform="translate(-27.892742,-24.950776)"
     style="fill:#ffd42a" /><g
     id="g5806"
     transform="translate(0,-4)"><path
       id="path5162"
       d="m 92.365234,67.759762 a 2,2 0 0 1 2,2 2,2 0 0 1 -2,2 2,2 0 0 1 -2,-2 2,2 0 0 1 2,-2 z"
       style="fill:#5fbcd3;fill-opacity:1"
       inkscape:connector-curvature="0" /><g
       inkscape:label="#CIRCLE_20_"
       style="fill:#ffd42a"
       transform="translate(-27.892742,-24.950776)"
       id="pin2_circle"><path
         d="m 118.2,94.7 c 0,-1.2 0.9,-2.1 2.1,-2.1 1.2,0 2.1,0.9 2.1,2.1 0,1.2 -0.9,2.1 -2.1,2.1 -1.2,0 -2.1,-1 -2.1,-2.1 l 0,0 z m 11.1,-7.70003 c -2.6,-2.6 -6.8,-2.6 -9.4,0 l -12.4,12.399996 18.7,0 3,-3 c 2.7,-2.699996 2.7,-6.899996 0.1,-9.399996 z"
         style="fill:#ffd42a;stroke:#000000;stroke-width:0.28349999;stroke-linecap:round;stroke-linejoin:round;stroke-miterlimit:10"
         id="path1816"
         inkscape:connector-curvature="0" /></g><rect
       style="fill:#d4ff2a;stroke:#58595b;stroke-width:0.2835173;stroke-miterlimit:10"
       id="rect41"
       height="4.3002629"
       width="8.5005198"
       class="st0"
       transform="matrix(0.70705678,-0.70715678,0.70715678,0.70705678,0,0)"
       y="113.43945"
       x="29.459" /><g
       style="fill:#2b1100"
       transform="translate(-27.892742,-24.950776)"
       id="g71"><path
         style="fill:#2b1100;stroke:#58595b;stroke-width:0.28349999;stroke-miterlimit:10"
         inkscape:connector-curvature="0"
         id="path73"
         d="m 125.5,93.2 c -0.2,-0.4 -0.2,-0.9 -0.1,-1.6 0.1,-0.6 0.2,-1 0.1,-1.3 0,-0.3 -0.1,-0.6 -0.3,-0.8 -0.2,-0.2 -0.4,-0.3 -0.6,-0.3 -0.2,0 -0.4,0.1 -0.6,0.2 -0.2,0.2 -0.3,0.5 -0.2,0.8 0.1,0.2 0.2,0.3 0.4,0.6 l -0.8,0.8 c -0.3,-0.4 -0.5,-0.7 -0.6,-1 -0.2,-0.6 0,-1.2 0.5,-1.7 0.4,-0.4 0.9,-0.6 1.4,-0.7 0.5,0 0.9,0.2 1.3,0.6 0.3,0.3 0.5,0.6 0.5,1.1 0,0.3 0,0.6 -0.1,1.1 l -0.1,0.5 c -0.1,0.3 -0.1,0.6 -0.1,0.7 0,0.1 0,0.3 0,0.4 l 1.7,-1.7 0.7,0.7 -2.7,2.7 c -0.1,-0.4 -0.3,-0.7 -0.4,-1.1 z"
         class="st0" /></g></g><g
     id="g5798"
     transform="translate(0,-4)"><path
       id="path5166"
       d="m 68.244141,67.701168 a 2,2 0 0 1 2,2 2,2 0 0 1 -2,2 2,2 0 0 1 -2,-2 2,2 0 0 1 2,-2 z"
       style="fill:#5fbcd3;fill-opacity:1"
       inkscape:connector-curvature="0" /><g
       inkscape:label="#CIRCLE_21_"
       transform="translate(-27.892742,-24.950776)"
       id="pin1_circle"><path
         d="m 94.1,94.7 c 0,-1.2 0.9,-2.1 2.1,-2.1 1.2,0 2.1,0.9 2.1,2.1 0,1.2 -0.9,2.1 -2.1,2.1 -1.1,0 -2.1,-1 -2.1,-2.1 l 0,0 z m 11.2,-7.70003 c -2.6,-2.6 -6.8,-2.6 -9.4,0 l -12.4,12.299996 18.7,0 3,-3 c 2.7,-2.599996 2.7,-6.799996 0.1,-9.299996 z"
         style="fill:#ffd42a;stroke:#000000;stroke-width:0.28349999;stroke-linecap:round;stroke-linejoin:round;stroke-miterlimit:10"
         id="path1813"
         inkscape:connector-curvature="0" /></g><rect
       style="fill:#d4ff2a;stroke:#58595b;stroke-width:0.2835173;stroke-miterlimit:10"
       id="rect35"
       height="4.3002629"
       width="8.5005198"
       class="st0"
       transform="matrix(0.70705678,-0.70715678,0.70715678,0.70705678,0,0)"
       y="96.442062"
       x="12.498686" /><g
       style="fill:#2b1100"
       transform="translate(-27.892742,-24.950776)"
       id="g75"><path
         style="fill:#2b1100;stroke:#58595b;stroke-width:0.28349999;stroke-miterlimit:10"
         inkscape:connector-curvature="0"
         id="path77"
         d="M 99.6,91.3 99,90.7 c 0.2,-0.3 0.4,-0.4 0.5,-0.6 0.1,-0.2 0.2,-0.4 0.2,-0.6 0,-0.1 0,-0.3 -0.1,-0.4 -0.1,-0.1 -0.1,-0.2 -0.1,-0.2 l 0.7,-0.7 4,4 -0.8,0.8 -2.8,-2.8 -1,1.1 z"
         class="st0" /></g></g><g
     id="g5814"
     transform="translate(0,-4)"><path
       id="path5160"
       d="m 116.54297,67.759762 a 2,2 0 0 1 2,2 2,2 0 0 1 -2,2 2,2 0 0 1 -2,-2 2,2 0 0 1 2,-2 z"
       style="fill:#5fbcd3;fill-opacity:1"
       inkscape:connector-curvature="0" /><g
       inkscape:label="#CIRCLE_19_"
       style="fill:#ffd42a"
       transform="translate(-27.892742,-24.950776)"
       id="pin3_circle"><path
         d="m 142.2,94.7 c 0,-1.2 0.9,-2.1 2.1,-2.1 1.2,0 2.1,0.9 2.1,2.1 0,1.2 -0.9,2.1 -2.1,2.1 -1.1,0 -2.1,-1 -2.1,-2.1 l 0,0 z m 11.2,-7.70003 c -2.6,-2.6 -6.8,-2.6 -9.4,0 l -12.4,12.399996 18.7,0 3,-3 C 156,93.69997 156,89.49997 153.4,86.99997 Z"
         style="fill:#ffd42a;stroke:#000000;stroke-width:0.28349999;stroke-linecap:round;stroke-linejoin:round;stroke-miterlimit:10"
         id="path1819"
         inkscape:connector-curvature="0" /></g><rect
       style="fill:#d4ff2a;stroke:#58595b;stroke-width:0.28349999;stroke-miterlimit:10"
       id="rect47"
       height="4.2999592"
       width="8.4999189"
       class="st0"
       transform="matrix(0.70710678,-0.70710678,0.70710678,0.70710678,0,0)"
       y="130.42595"
       x="46.41864" /><g
       style="fill:#2b1100"
       transform="translate(-27.892742,-24.950776)"
       id="g79"><path
         style="fill:#2b1100;stroke:#58595b;stroke-width:0.28349999;stroke-miterlimit:10"
         inkscape:connector-curvature="0"
         id="path81"
         d="m 149.6,92.1 c 0.2,0.2 0.3,0.3 0.5,0.3 0.3,0.1 0.6,0 0.8,-0.2 0.2,-0.2 0.2,-0.3 0.2,-0.6 0,-0.2 -0.1,-0.4 -0.3,-0.6 -0.3,-0.3 -0.5,-0.3 -0.8,-0.2 -0.2,0.1 -0.4,0.2 -0.6,0.5 l -0.6,-0.6 c 0.3,-0.3 0.4,-0.5 0.5,-0.6 0.1,-0.3 0,-0.5 -0.2,-0.7 -0.2,-0.2 -0.3,-0.2 -0.5,-0.2 -0.2,0 -0.4,0.1 -0.5,0.2 -0.2,0.2 -0.3,0.4 -0.2,0.6 0,0.2 0.1,0.4 0.3,0.6 l -0.7,0.7 c -0.2,-0.2 -0.3,-0.4 -0.5,-0.7 -0.1,-0.2 -0.1,-0.5 -0.1,-0.7 0,-0.2 0.1,-0.4 0.2,-0.6 0.1,-0.2 0.2,-0.4 0.4,-0.6 0.4,-0.4 0.8,-0.6 1.2,-0.6 0.4,0 0.8,0.1 1.1,0.4 0.2,0.2 0.4,0.5 0.4,0.8 0,0.2 0,0.3 -0.1,0.5 0.1,-0.1 0.2,-0.1 0.5,-0.1 0.4,0 0.7,0.1 1.1,0.5 0.3,0.3 0.5,0.8 0.5,1.2 0,0.5 -0.2,1 -0.7,1.4 -0.6,0.6 -1.1,0.8 -1.7,0.6 -0.3,-0.1 -0.6,-0.3 -1,-0.6 l 0.8,-0.7 z"
         class="st0" /></g></g><g
     id="g5822"
     transform="translate(0,-4)"><path
       id="path5158"
       d="m 140.54883,67.759762 a 2,2 0 0 1 2,2 2,2 0 0 1 -2,2 2,2 0 0 1 -2,-2 2,2 0 0 1 2,-2 z"
       style="fill:#5fbcd3;fill-opacity:1"
       inkscape:connector-curvature="0" /><g
       inkscape:label="#CIRCLE_18_"
       style="fill:#ffd42a"
       transform="translate(-27.892742,-24.950776)"
       id="pin4_circle"><path
         d="m 166.3,94.7 c 0,-1.2 0.9,-2.1 2.1,-2.1 1.2,0 2.1,0.9 2.1,2.1 0,1.2 -0.9,2.1 -2.1,2.1 -1.2,0 -2.1,-1 -2.1,-2.1 l 0,0 z m 11.1,-7.70003 c -2.6,-2.6 -6.8,-2.6 -9.4,0 l -12.4,12.399996 18.7,0 3,-3 C 180,93.69997 180,89.49997 177.4,86.99997 Z"
         style="fill:#ffd42a;stroke:#000000;stroke-width:0.28349999;stroke-linecap:round;stroke-linejoin:round;stroke-miterlimit:10"
         id="path1822"
         inkscape:connector-curvature="0" /></g><rect
       style="fill:#d4ff2a;stroke:#58595b;stroke-width:0.2835173;stroke-miterlimit:10"
       id="rect55"
       height="4.3002629"
       width="8.5005198"
       class="st0"
       transform="matrix(0.70705678,-0.70715678,0.70715678,0.70705678,0,0)"
       y="147.43501"
       x="63.479202" /><g
       style="fill:#2b1100"
       transform="translate(-27.892742,-24.950776)"
       id="g83"><g
         style="fill:#2b1100"
         id="g85"><path
           style="fill:#2b1100;stroke:#58595b;stroke-width:0.28349999;stroke-miterlimit:10"
           inkscape:connector-curvature="0"
           id="path87"
           d="m 175.5,90.1 -0.5,0.5 0.9,0.9 -0.8,0.8 -0.9,-0.9 -1.6,1.6 -0.7,-0.7 -1,-3.9 0.9,-0.9 2.5,2.5 0.5,-0.5 0.7,0.6 z m -1.8,0.6 -1.7,-1.7 0.7,2.7 1,-1 z"
           class="st0" /></g><g
         style="fill:#2b1100"
         id="g89"><rect
           style="fill:#2b1100;stroke:#58595b;stroke-width:0.28349999;stroke-miterlimit:10"
           id="rect91"
           height="0.60000002"
           width="4.4000001"
           class="st0"
           transform="matrix(0.707,-0.7072,0.7072,0.707,-14.3523,151.7285)"
           y="92.900002"
           x="173.8" /></g></g></g><g
     id="g5780"
     transform="translate(0,-4)"><path
       id="path5156"
       d="m 164.55469,67.759762 a 2,2 0 0 1 2,2 2,2 0 0 1 -2,2 2,2 0 0 1 -2,-2 2,2 0 0 1 2,-2 z"
       style="fill:#5fbcd3;fill-opacity:1"
       inkscape:connector-curvature="0" /><g
       inkscape:label="#CIRCLE_22_"
       style="fill:#ffd42a"
       transform="translate(-27.892742,-24.950776)"
       id="pin5_circle"><path
         d="m 190.3,94.7 c 0,-1.2 0.9,-2.1 2.1,-2.1 1.2,0 2.1,0.9 2.1,2.1 0,1.2 -0.9,2.1 -2.1,2.1 -1.1,0 -2.1,-1 -2.1,-2.1 l 0,0 z m 11.1,-7.70003 c -2.6,-2.6 -6.8,-2.6 -9.4,0 l -12.4,12.399996 18.7,0 3,-3 C 204,93.69997 204,89.49997 201.4,86.99997 Z"
         style="fill:#ffd42a;stroke:#000000;stroke-width:0.28349999;stroke-linecap:round;stroke-linejoin:round;stroke-miterlimit:10"
         id="path1810"
         inkscape:connector-curvature="0" /></g><rect
       style="fill:#d4ff2a;stroke:#58595b;stroke-width:0.2835173;stroke-miterlimit:10"
       id="rect61"
       height="4.3002629"
       width="8.5005198"
       class="st0"
       transform="matrix(0.70705678,-0.70715678,0.70715678,0.70705678,0,0)"
       y="164.43245"
       x="80.439445" /><g
       style="fill:#2b1100"
       transform="translate(-27.892742,-24.950776)"
       id="g93"><path
         style="fill:#2b1100;stroke:#58595b;stroke-width:0.28349999;stroke-miterlimit:10"
         inkscape:connector-curvature="0"
         id="path95"
         d="m 197.2,92.2 c 0.2,0.1 0.4,0.2 0.6,0.2 0.2,0 0.4,-0.1 0.5,-0.2 0.2,-0.2 0.3,-0.4 0.2,-0.7 0,-0.2 -0.2,-0.5 -0.4,-0.7 -0.2,-0.2 -0.4,-0.3 -0.7,-0.4 -0.2,0 -0.5,0 -0.7,0.2 -0.1,0.1 -0.2,0.2 -0.2,0.3 -0.1,0.2 -0.1,0.3 0,0.5 l -0.7,0.7 -1.9,-2.5 2.2,-2.2 0.7,0.7 -1.6,1.6 0.7,1 c 0,-0.2 0.1,-0.3 0.1,-0.4 0.1,-0.2 0.2,-0.3 0.4,-0.5 0.3,-0.3 0.7,-0.5 1.2,-0.5 0.5,0 0.9,0.2 1.3,0.6 0.4,0.4 0.6,0.8 0.6,1.3 0.1,0.5 -0.2,1 -0.6,1.5 -0.4,0.4 -0.8,0.6 -1.2,0.6 -0.4,0 -0.9,-0.1 -1.3,-0.5 l 0.8,-0.6 z"
         class="st0" /></g><g
       style="fill:#2b2200"
       transform="translate(-27.892742,-24.950776)"
       id="g97"><rect
         style="fill:#2b2200;stroke:#58595b;stroke-width:0.28349999;stroke-miterlimit:10"
         id="rect99"
         height="0.60000002"
         width="4.9000001"
         class="st0"
         transform="matrix(0.7071,-0.7071,0.7071,0.7071,-7.7753,168.8215)"
         y="93.5"
         x="197.39999" /></g></g><g
     id="LINE_1179_"
     transform="translate(-27.892742,-24.950776)"
     style="fill:#2b1100" /><g
     id="LINE_1178_"
     transform="translate(-27.892742,-24.950776)"
     style="fill:#2b1100" /><g
     id="LINE_1177_"
     transform="translate(-27.892742,-24.950776)"
     style="fill:#2b1100" /><g
     id="LINE_1175_"
     transform="translate(-27.892742,-24.950776)" /><g
     id="LINE_1174_"
     transform="translate(-27.892742,-24.950776)" /><g
     id="LINE_1173_"
     transform="translate(-27.892742,-24.950776)" /><g
     id="LINE_679_"
     transform="translate(-27.892742,-24.950776)" /><g
     id="LINE_678_"
     transform="translate(-27.892742,-24.950776)" /><g
     id="LINE_677_"
     transform="translate(-27.892742,-24.950776)" /><g
     id="LINE_663_"
     transform="translate(-27.892742,-24.950776)" /><g
     id="LINE_662_"
     transform="translate(-27.892742,-24.950776)" /><g
     id="LINE_661_"
     transform="translate(-27.892742,-24.950776)" /><g
     id="LINE_645_"
     transform="translate(-27.892742,-24.950776)" /><g
     id="LINE_640_"
     transform="translate(-27.892742,-24.950776)" /><g
     id="LINE_636_"
     transform="translate(-27.892742,-24.950776)" /><g
     id="LINE_628_"
     transform="translate(-27.892742,-24.950776)" /><g
     id="LINE_621_"
     transform="translate(-27.892742,-24.950776)" /><g
     id="CIRCLE_27_"
     transform="translate(-27.892742,-24.950776)" /><g
     id="CIRCLE_24_"
     transform="translate(-27.892742,-24.950776)" /><g
     id="CIRCLE_17_"
     transform="translate(-27.892742,-24.950776)" /><g
     id="CIRCLE_16_"
     transform="translate(-27.892742,-24.950776)" /><rect
     x="265.89999"
     y="-39.599972"
     class="st3"
     width="141.7"
     height="56.700001"
     id="rect2040"
     style="fill:none" /></svg>