<?xml version="1.0" encoding="UTF-8" standalone="no"?>
<!DOCTYPE svg PUBLIC "-//W3C//DTD SVG 1.1//EN" "http://www.w3.org/Graphics/SVG/1.1/DTD/svg11.dtd">
<svg width="32px" height="66px" version="1.1" xmlns="http://www.w3.org/2000/svg" xmlns:xlink="http://www.w3.org/1999/xlink" xml:space="preserve" xmlns:serif="http://www.serif.com/" style="fill-rule:evenodd;clip-rule:evenodd;">
    <g id="g6024">
        <path id="rect2190" d="M9.336,7.804L12.94,7.832L19.761,0.864C19.971,0.697 20.446,0.278 21.169,0.214C21.169,0.214 22.31,0.22 22.937,0.255C23.515,0.287 24.185,0.822 24.185,0.822L30.467,7.328C31.116,8.091 31.108,8.488 30.156,9.411L23.84,15.88L26.828,19.146C27.572,19.862 27.46,20.29 26.823,20.878L19.136,28.784L18.86,62.938C18.85,64.11 17.516,65.086 15.873,65.098L3.116,65.12C1.473,65.132 0.148,64.198 0.151,63.026L0.39,24.986C0.39,24.986 3.65,21.406 4.28,20.534C4.543,20.17 4.567,19.552 4.305,19.187C3.683,18.321 1.41,15.847 1.41,15.847L6.263,10.137C7.005,9.248 7.695,7.856 9.337,7.804L9.336,7.804Z" style="fill:white;fill-rule:nonzero;stroke:black;stroke-width:0.3px;"/>
        <path id="path1954" d="M11.312,30.284L11.312,30.984L10.012,30.984L10.012,32.284L9.312,32.284L9.312,30.984L8.012,30.984L8.012,30.284L9.312,30.284L9.312,28.984L10.012,28.984L10.012,30.284L11.312,30.284Z" style="fill:rgb(72,69,55);fill-rule:nonzero;"/>
        <g id="g1960">
            <path id="path1962" d="M8.143,61.291L7.602,61.291C7.602,61.237 7.548,61.182 7.494,61.074C7.44,61.02 7.385,60.965 7.277,60.911C7.169,60.857 7.115,60.857 7.007,60.857C6.79,60.857 6.628,60.911 6.466,61.074C6.303,61.237 6.249,61.454 6.249,61.725C6.249,61.997 6.303,62.214 6.466,62.376C6.574,62.539 6.79,62.594 7.007,62.594C7.169,62.594 7.277,62.539 7.385,62.431C7.494,62.322 7.602,62.214 7.602,61.997L7.007,61.997L7.007,61.562L8.089,61.562L8.089,62.919L7.71,62.919L7.656,62.594C7.548,62.756 7.44,62.811 7.277,62.919C7.115,63.028 7.007,63.028 6.844,63.028C6.628,63.028 6.411,62.973 6.249,62.865C6.087,62.756 5.924,62.594 5.816,62.376C5.708,62.159 5.654,61.942 5.654,61.671C5.654,61.399 5.708,61.182 5.816,60.965C5.924,60.748 6.033,60.585 6.249,60.477C6.411,60.368 6.682,60.314 6.898,60.314C7.115,60.314 7.277,60.368 7.44,60.423C7.602,60.477 7.71,60.585 7.818,60.748C8.089,60.965 8.143,61.128 8.143,61.291Z" style="fill:rgb(72,69,55);fill-rule:nonzero;"/>
            <path id="path1964" d="M10.199,62.268L10.199,60.477L10.686,60.477L10.686,63.028L10.145,63.028L9.117,61.237L9.117,63.028L8.63,63.028L8.63,60.477L9.171,60.477L10.199,62.268Z" style="fill:rgb(72,69,55);fill-rule:nonzero;"/>
            <path id="path1966" d="M13.338,61.671C13.338,61.942 13.284,62.159 13.23,62.376C13.121,62.594 13.013,62.756 12.851,62.811C12.689,62.865 12.526,62.973 12.31,62.973L11.173,62.973L11.173,60.423L12.31,60.423C12.526,60.423 12.743,60.477 12.851,60.585C12.959,60.694 13.121,60.857 13.176,61.02C13.338,61.237 13.338,61.454 13.338,61.671ZM12.797,61.725C12.797,61.182 12.634,60.911 12.256,60.911L11.715,60.911L11.715,62.594L12.256,62.594C12.418,62.594 12.58,62.539 12.689,62.376C12.797,62.214 12.797,61.997 12.797,61.725Z" style="fill:rgb(72,69,55);fill-rule:nonzero;"/>
        </g>
        <path id="path1954-0" d="M22.911,19.936L20.697,19.936L20.7,19.742L21.643,19.743C21.543,19.469 21.543,19.471 21.492,19.337C21.445,19.134 21.686,19.019 21.921,19.172L22.911,19.936ZM22.911,19.938L20.697,19.938L20.7,20.131L21.643,20.13C21.543,20.405 21.543,20.402 21.492,20.536C21.445,20.739 21.686,20.854 21.921,20.702L22.911,19.938Z" style="fill:rgb(72,69,55);fill-rule:nonzero;"/>
        <path d="M1.168,60.535L1.168,48.724C1.168,48.502 1.168,48.309 1.168,48.152C1.168,47.681 1.374,47.547 1.817,47.721C4.945,48.947 8.074,50.172 11.203,51.396C11.27,51.422 11.347,51.483 11.413,51.423C11.477,51.364 11.425,51.279 11.408,51.21C11.201,50.331 10.993,49.454 10.782,48.577C10.634,47.961 10.732,47.849 11.348,47.948C12.95,48.209 14.553,48.471 16.155,48.732C16.47,48.783 16.505,48.825 16.505,49.187L16.505,63.011C16.504,63.346 16.459,63.39 16.126,63.39C12.036,63.391 7.945,63.391 3.855,63.39C3.138,63.39 2.504,63.127 1.981,62.664C1.591,62.318 1.392,61.822 1.25,61.317C1.177,61.061 1.164,60.801 1.165,60.536" style="fill:rgb(255,204,4);fill-rule:nonzero;stroke:rgb(1,1,1);stroke-width:0.17px;stroke-miterlimit:10;"/>
        <path d="M1.186,44.212L1.192,31.403C1.193,31.049 1.2,30.684 1.353,30.344C1.582,29.836 1.93,29.438 2.415,29.163C2.846,28.919 3.275,28.721 3.801,28.723C7.861,28.738 11.921,28.732 15.98,28.733C16.431,28.733 16.483,28.78 16.484,29.234L16.48,43.848C16.454,44.109 16.198,44.281 15.955,44.18C15.205,43.868 5.549,40.464 4.706,40.166C4.651,40.147 4.586,40.101 4.536,40.147C4.464,40.211 4.525,40.289 4.548,40.354C4.999,41.67 5.452,42.984 5.908,44.296C5.977,44.496 5.997,44.673 5.801,44.819C5.707,44.889 5.607,44.896 5.502,44.89C4.918,44.858 2.476,44.706 1.839,44.666C1.757,44.66 1.673,44.665 1.591,44.658C1.235,44.627 1.186,44.574 1.186,44.212Z" style="fill:rgb(255,204,4);fill-rule:nonzero;stroke:rgb(1,1,1);stroke-width:0.17px;stroke-miterlimit:10;"/>
        <path d="M9.199,33.221L9.199,32.238L10.145,32.238C10.326,32.238 10.473,32.092 10.473,31.911C10.473,31.73 10.326,31.583 10.145,31.583L9.199,31.583L9.199,30.601C9.199,30.42 9.052,30.274 8.871,30.274C8.691,30.274 8.544,30.42 8.544,30.601L8.544,31.583L7.526,31.583C7.345,31.583 7.198,31.73 7.198,31.911C7.198,32.092 7.345,32.238 7.526,32.238L8.544,32.238L8.544,33.221C8.544,33.402 8.691,33.548 8.871,33.548C9.052,33.548 9.199,33.402 9.199,33.221Z" style="fill:rgb(1,1,1);fill-rule:nonzero;"/>
        <path d="M6.429,59.482C6.378,59.267 6.258,59.118 6.064,59.032C5.956,58.984 5.835,58.962 5.704,58.962C5.451,58.962 5.243,59.057 5.08,59.248C4.916,59.439 4.836,59.726 4.836,60.108C4.836,60.493 4.924,60.768 5.101,60.927C5.277,61.087 5.478,61.167 5.701,61.167C5.922,61.167 6.102,61.104 6.243,60.977C6.383,60.851 6.471,60.686 6.503,60.481L5.776,60.481L5.776,59.955L7.086,59.955L7.086,61.643L6.651,61.643L6.584,61.251C6.458,61.399 6.344,61.504 6.243,61.564C6.07,61.671 5.857,61.724 5.604,61.724C5.187,61.724 4.847,61.58 4.58,61.292C4.303,61.002 4.164,60.605 4.164,60.103C4.164,59.594 4.304,59.186 4.584,58.881C4.863,58.573 5.234,58.42 5.694,58.42C6.094,58.42 6.414,58.522 6.657,58.724C6.899,58.927 7.038,59.179 7.074,59.482L6.429,59.482Z" style="fill:rgb(1,1,1);fill-rule:nonzero;"/>
        <path d="M7.701,58.502L8.389,58.502L9.637,60.693L9.637,58.502L10.249,58.502L10.249,61.644L9.592,61.644L8.313,59.414L8.313,61.644L7.701,61.644L7.701,58.502Z" style="fill:rgb(1,1,1);fill-rule:nonzero;"/>
        <path d="M12.707,58.57C12.928,58.642 13.106,58.775 13.242,58.968C13.352,59.125 13.426,59.294 13.466,59.476C13.507,59.658 13.526,59.831 13.526,59.997C13.526,60.415 13.442,60.768 13.274,61.058C13.046,61.449 12.695,61.644 12.22,61.644L10.865,61.644L10.865,58.502L12.22,58.502C12.415,58.503 12.577,58.527 12.707,58.57ZM11.503,59.047L11.503,61.099L12.109,61.099C12.419,61.099 12.636,60.946 12.758,60.64C12.825,60.473 12.859,60.273 12.859,60.041C12.859,59.721 12.808,59.476 12.708,59.304C12.607,59.132 12.407,59.047 12.109,59.047L11.503,59.047Z" style="fill:rgb(1,1,1);fill-rule:nonzero;"/>
    </g>
    <path id="path6258" d="M17.658,63.23L17.658,29.304" style="fill:none;stroke:black;stroke-width:0.97px;stroke-dasharray:7.76,0.97;"/>
    <path d="M8.536,8.94C8.605,8.969 8.663,9.013 8.711,9.07C8.75,9.117 8.781,9.169 8.805,9.227C8.828,9.284 8.839,9.349 8.839,9.423C8.839,9.511 8.817,9.598 8.772,9.684C8.727,9.769 8.654,9.83 8.551,9.865C8.636,9.899 8.697,9.949 8.733,10.012C8.77,10.076 8.787,10.173 8.787,10.304L8.787,10.429C8.787,10.513 8.79,10.571 8.797,10.602C8.808,10.65 8.832,10.685 8.869,10.708L8.869,10.755L8.44,10.755C8.428,10.713 8.42,10.68 8.414,10.655C8.404,10.602 8.399,10.549 8.398,10.494L8.395,10.321C8.394,10.202 8.374,10.123 8.334,10.083C8.295,10.044 8.22,10.024 8.112,10.024L7.732,10.024L7.732,10.755L7.352,10.755L7.352,8.892L8.243,8.892C8.37,8.894 8.468,8.91 8.536,8.94ZM7.732,9.215L7.732,9.716L8.151,9.716C8.234,9.716 8.297,9.705 8.338,9.685C8.412,9.65 8.449,9.58 8.449,9.476C8.449,9.363 8.413,9.287 8.342,9.248C8.302,9.227 8.242,9.216 8.162,9.216L7.732,9.216L7.732,9.215Z" style="fill:rgb(1,1,1);fill-rule:nonzero;"/>
    <path d="M10.464,9.473C10.434,9.346 10.363,9.257 10.248,9.206C10.184,9.178 10.112,9.164 10.035,9.164C9.885,9.164 9.761,9.221 9.665,9.334C9.568,9.447 9.52,9.617 9.52,9.844C9.52,10.072 9.572,10.235 9.677,10.33C9.782,10.424 9.901,10.471 10.033,10.471C10.164,10.471 10.271,10.434 10.354,10.359C10.437,10.284 10.489,10.186 10.508,10.065L10.077,10.065L10.077,9.753L10.854,9.753L10.854,10.754L10.596,10.754L10.557,10.521C10.481,10.609 10.414,10.671 10.354,10.707C10.252,10.77 10.125,10.802 9.975,10.802C9.728,10.802 9.526,10.716 9.368,10.546C9.204,10.374 9.122,10.139 9.122,9.841C9.122,9.539 9.205,9.297 9.371,9.116C9.536,8.934 9.756,8.843 10.029,8.843C10.266,8.843 10.456,8.903 10.599,9.024C10.743,9.144 10.826,9.293 10.847,9.473L10.464,9.473Z" style="fill:rgb(1,1,1);fill-rule:nonzero;"/>
    <path d="M12.614,9.09C12.671,9.169 12.7,9.264 12.7,9.375C12.7,9.488 12.671,9.58 12.614,9.648C12.581,9.687 12.535,9.723 12.472,9.755C12.567,9.789 12.639,9.844 12.687,9.919C12.735,9.994 12.76,10.085 12.76,10.192C12.76,10.302 12.732,10.401 12.677,10.489C12.642,10.547 12.598,10.596 12.545,10.635C12.485,10.681 12.415,10.712 12.335,10.729C12.254,10.746 12.166,10.754 12.071,10.754L11.232,10.754L11.232,8.892L12.132,8.892C12.359,8.895 12.52,8.961 12.614,9.09ZM11.603,9.215L11.603,9.626L12.056,9.626C12.136,9.626 12.202,9.611 12.253,9.58C12.304,9.548 12.329,9.495 12.329,9.416C12.329,9.33 12.296,9.273 12.229,9.244C12.172,9.225 12.098,9.215 12.009,9.215L11.603,9.215ZM11.603,9.934L11.603,10.431L12.055,10.431C12.136,10.431 12.199,10.42 12.244,10.398C12.325,10.358 12.366,10.28 12.366,10.166C12.366,10.068 12.326,10.002 12.248,9.966C12.203,9.946 12.142,9.935 12.061,9.934L11.603,9.934Z" style="fill:rgb(1,1,1);fill-rule:nonzero;"/>
    <path d="M7.63,11.48L8.019,11.48L8.019,13.008L8.95,13.008L8.95,13.342L7.63,13.342L7.63,11.48Z" style="fill:rgb(1,1,1);fill-rule:nonzero;"/>
    <path d="M10.589,11.81L9.604,11.81L9.604,12.206L10.508,12.206L10.508,12.529L9.604,12.529L9.604,13.009L10.635,13.009L10.635,13.343L9.222,13.343L9.222,11.48L10.589,11.48L10.589,11.81Z" style="fill:rgb(1,1,1);fill-rule:nonzero;"/>
    <path d="M15.438,8.002L22.138,14.702L28.838,8.002L22.138,1.302L15.438,8.002Z" style="fill:rgb(204,204,204);stroke:rgb(1,1,1);stroke-width:0.26px;stroke-linecap:round;stroke-linejoin:round;stroke-miterlimit:10;"/>
    <path d="M12.029,11.52C12.16,11.563 12.265,11.642 12.346,11.756C12.411,11.85 12.455,11.949 12.479,12.058C12.503,12.165 12.514,12.268 12.514,12.366C12.514,12.614 12.465,12.823 12.365,12.995C12.23,13.227 12.022,13.343 11.74,13.343L10.937,13.343L10.937,11.48L11.74,11.48C11.856,11.481 11.952,11.495 12.029,11.52ZM11.315,11.803L11.315,13.019L11.675,13.019C11.858,13.019 11.987,12.929 12.059,12.748C12.099,12.649 12.119,12.53 12.119,12.393C12.119,12.203 12.089,12.058 12.029,11.956C11.97,11.854 11.851,11.803 11.674,11.803L11.315,11.803Z" style="fill:rgb(1,1,1);fill-rule:nonzero;"/>
    <circle cx="22.1" cy="8.041" r="3.889" style="fill:white;stroke:black;stroke-width:0.16px;stroke-linecap:round;stroke-linejoin:round;stroke-miterlimit:1.5;"/>
    <path d="M7.045,20.653C7.475,20.128 7.302,19.709 7.045,19.393L3.81,15.512C3.398,15.044 3.81,14.116 4.472,14.116L4.545,14.116L4.619,14.116L8.439,14.116L13.584,14.116L19.021,14.116L19.609,14.116C20.003,14.116 20.201,14.335 20.343,14.483C21.55,15.74 25.119,19.393 25.119,19.393C25.51,19.834 25.59,20.128 25.119,20.642C25.119,20.642 21.55,24.309 20.343,25.565C20.201,25.713 20.003,25.932 19.609,25.932L4.472,25.932C3.81,25.932 3.398,25.004 3.81,24.536L7.045,20.655" style="fill:rgb(255,204,4);fill-rule:nonzero;stroke:rgb(1,1,1);stroke-width:0.15px;stroke-miterlimit:10;"/>
    <path d="M19.533,20.275L21.752,20.295L21.14,20.906C21.033,21.013 21.033,21.189 21.14,21.296C21.248,21.404 21.423,21.404 21.531,21.296L22.607,20.22C22.608,20.219 22.608,20.218 22.608,20.217C22.656,20.168 22.687,20.102 22.688,20.027C22.688,20.027 22.688,20.026 22.688,20.026L22.688,20.025C22.688,20.024 22.687,20.023 22.687,20.022C22.686,19.948 22.657,19.88 22.608,19.832C22.608,19.831 22.608,19.83 22.608,19.83L21.531,18.753C21.478,18.699 21.406,18.672 21.336,18.672C21.265,18.672 21.196,18.698 21.141,18.752C21.034,18.859 21.033,19.034 21.14,19.141L21.742,19.744L19.537,19.724C19.537,19.724 19.536,19.724 19.535,19.724C19.384,19.724 19.261,19.846 19.26,19.997C19.258,20.149 19.38,20.274 19.533,20.275Z" style="fill:rgb(1,1,1);fill-rule:nonzero;"/>
    <path d="M16.645,9.209L16.645,6.722" style="fill:none;stroke:rgb(1,1,1);stroke-width:0.26px;stroke-linejoin:bevel;stroke-miterlimit:10;"/>
</svg>
